<svg width="2000" height="2000" viewBox="0 0 2000 2000" fill="none" xmlns="http://www.w3.org/2000/svg">
<g clip-path="url(#clip0_1066_54)">
<rect width="2000" height="2000" fill="#333333"/>
<path d="M2000 0H0V2000H2000V0Z" fill="#224A5C"/>
<path d="M1000.17 1662.17C1368.08 1662.17 1666.33 1364.14 1666.33 996.502C1666.33 628.864 1368.08 330.835 1000.17 330.835C632.253 330.835 334 628.864 334 996.502C334 1364.14 632.253 1662.17 1000.17 1662.17Z" fill="white"/>
<path d="M1000.24 1529.24C1291.42 1529.24 1527.47 1293.41 1527.47 1002.5C1527.47 711.591 1291.42 475.763 1000.24 475.763C709.052 475.763 473 711.591 473 1002.5C473 1293.41 709.052 1529.24 1000.24 1529.24Z" fill="#224A5C"/>
<path d="M1000 1277.17C962.531 1277.17 927.117 1269.97 893.76 1255.58C860.403 1241.18 831.273 1221.53 806.37 1196.63C781.466 1171.73 761.818 1142.6 747.424 1109.24C733.03 1075.88 725.833 1040.47 725.833 1003C725.833 965.073 733.259 929.432 748.109 896.075C762.96 862.718 783.066 833.702 808.426 809.027C833.786 784.352 863.374 764.817 897.187 750.424C931.001 736.03 967.1 728.833 1005.48 728.833C1042.04 728.833 1076.54 735.116 1108.98 747.682C1141.42 760.248 1169.87 777.612 1194.32 799.774C1218.76 821.935 1238.18 848.21 1252.58 878.597C1266.97 908.983 1274.17 941.769 1274.17 976.954C1274.17 1029.5 1258.17 1069.83 1226.19 1097.93C1194.2 1126.03 1155.36 1140.08 1109.67 1140.08H1058.95C1054.83 1140.08 1051.98 1141.23 1050.38 1143.51C1048.78 1145.79 1047.98 1148.31 1047.98 1151.05C1047.98 1156.53 1051.41 1164.42 1058.26 1174.7C1065.11 1184.98 1068.54 1196.74 1068.54 1210C1068.54 1232.84 1062.26 1249.75 1049.69 1260.72C1037.13 1271.68 1020.56 1277.17 1000 1277.17ZM849.208 1030.42C861.089 1030.42 870.913 1026.53 878.681 1018.76C886.449 1011 890.333 1001.17 890.333 989.291C890.333 977.411 886.449 967.586 878.681 959.818C870.913 952.05 861.089 948.166 849.208 948.166C837.328 948.166 827.503 952.05 819.735 959.818C811.967 967.586 808.083 977.411 808.083 989.291C808.083 1001.17 811.967 1011 819.735 1018.76C827.503 1026.53 837.328 1030.42 849.208 1030.42ZM931.458 920.75C943.339 920.75 953.163 916.866 960.931 909.098C968.699 901.33 972.583 891.505 972.583 879.625C972.583 867.744 968.699 857.92 960.931 850.152C953.163 842.384 943.339 838.5 931.458 838.5C919.578 838.5 909.753 842.384 901.985 850.152C894.217 857.92 890.333 867.744 890.333 879.625C890.333 891.505 894.217 901.33 901.985 909.098C909.753 916.866 919.578 920.75 931.458 920.75ZM1068.54 920.75C1080.42 920.75 1090.25 916.866 1098.01 909.098C1105.78 901.33 1109.67 891.505 1109.67 879.625C1109.67 867.744 1105.78 857.92 1098.01 850.152C1090.25 842.384 1080.42 838.5 1068.54 838.5C1056.66 838.5 1046.84 842.384 1039.07 850.152C1031.3 857.92 1027.42 867.744 1027.42 879.625C1027.42 891.505 1031.3 901.33 1039.07 909.098C1046.84 916.866 1056.66 920.75 1068.54 920.75ZM1150.79 1030.42C1162.67 1030.42 1172.5 1026.53 1180.26 1018.76C1188.03 1011 1191.92 1001.17 1191.92 989.291C1191.92 977.411 1188.03 967.586 1180.26 959.818C1172.5 952.05 1162.67 948.166 1150.79 948.166C1138.91 948.166 1129.09 952.05 1121.32 959.818C1113.55 967.586 1109.67 977.411 1109.67 989.291C1109.67 1001.17 1113.55 1011 1121.32 1018.76C1129.09 1026.53 1138.91 1030.42 1150.79 1030.42ZM1000 1222.33C1004.11 1222.33 1007.43 1221.19 1009.94 1218.91C1012.45 1216.62 1013.71 1213.65 1013.71 1210C1013.71 1203.6 1010.28 1196.06 1003.43 1187.38C996.573 1178.69 993.146 1165.67 993.146 1148.31C993.146 1129.12 999.771 1113.81 1013.02 1102.39C1026.27 1090.96 1042.5 1085.25 1061.69 1085.25H1109.67C1139.82 1085.25 1165.64 1076.45 1187.12 1058.86C1208.6 1041.27 1219.33 1013.97 1219.33 976.954C1219.33 921.664 1198.2 875.626 1155.93 838.842C1113.66 802.058 1063.52 783.666 1005.48 783.666C943.339 783.666 890.333 804.914 846.467 847.41C802.6 889.906 780.667 941.769 780.667 1003C780.667 1063.77 802.029 1115.52 844.753 1158.25C887.477 1200.97 939.226 1222.33 1000 1222.33Z" fill="#AABDCF"/>
</g>
<defs>
<clipPath id="clip0_1066_54">
<rect width="2000" height="2000" fill="white"/>
</clipPath>
</defs>
</svg>
